<svg width="500" height="400" viewBox="0 0 500 400" fill="none" xmlns="http://www.w3.org/2000/svg">

  <rect width="500" height="400" rx="24" fill="#E8F0FF"></rect>

  <!-- Phone -->
  <rect x="300" y="80" width="110" height="220" rx="18" fill="#FFFFFF"></rect>
  <rect x="315" y="105" width="80" height="150" rx="10" fill="#DCE6FF"></rect>

  <!-- Profile Circle -->
  <circle cx="355" cy="130" r="18" fill="#4F7BFF"></circle>
  <rect x="330" y="160" width="50" height="10" rx="5" fill="#4F7BFF"></rect>

  <!-- Human -->
  <circle cx="170" cy="170" r="28" fill="#FFD3B6"></circle>
  <rect x="145" y="200" width="50" height="80" rx="18" fill="#4F7BFF"></rect>
  <rect x="135" y="220" width="20" height="60" rx="10" fill="#FFD3B6"></rect>
  <rect x="190" y="220" width="20" height="60" rx="10" fill="#FFD3B6"></rect>

  <!-- Arm -->
  <rect x="200" y="220" width="40" height="12" rx="6" fill="#FFD3B6"></rect>

  <!-- Check Icon -->
  <circle cx="380" cy="245" r="14" fill="#4CAF50"></circle>
  <path d="M374 245L379 250L387 238" stroke="white" stroke-width="3" stroke-linecap="round" stroke-linejoin="round"></path>

  <!-- Floating Elements -->
  <circle cx="90" cy="90" r="8" fill="#4F7BFF"></circle>
  <circle cx="110" cy="70" r="5" fill="#9DB8FF"></circle>
  <circle cx="260" cy="60" r="6" fill="#4F7BFF"></circle>
</svg>
